<svg xmlns="http://www.w3.org/2000/svg" xmlns:xlink="http://www.w3.org/1999/xlink" id="Layer_1" x="0px" y="0px" viewBox="0 0 1301 681" style="enable-background:new 0 0 1301 681;" xml:space="preserve"><style type="text/css">	.st0{fill:#183643;}	.st1{fill:#01B39E;}</style><path class="st0" d="M102.3,0.8C65.2,4.7,42.1,35.1,49.5,70.1c4.4,20.7,23.1,37.9,45.8,42.2c10.3,2,25.8,1.9,35.5-0.1 c21.1-4.3,37.9-18.5,44.3-37.4c3.1-9.1,3.1-25.6,0-35.1c-6.9-21.6-26.3-35.9-52.6-38.9C112.7-0.3,112.8-0.3,102.3,0.8z"></path><path class="st0" d="M268,0.9c-24.9,3-44.4,17.8-51.1,38.8c-3,9.5-3,26.1,0,35.1c6.4,18.9,23.2,33.1,44.3,37.4 c9.7,2,25.2,2.1,35.5,0.1c22.7-4.3,41.4-21.5,45.8-42.2c6.6-30.9-11.2-59.5-41.7-67.2C291.6,0.6,277.8-0.3,268,0.9z"></path><path class="st0" d="M499.7,153.3c-31.1,5.1-57.5,19-79.4,41.9c-25.2,26.3-41.5,64.1-46.3,107.1c-1.3,11.9-1.3,47,0.1,59.3 c8.5,78.7,54.1,135.1,119.9,148.3c12.8,2.6,35.7,3.5,48.9,2c40.2-4.7,72.6-25.6,90.2-58.3l4-7.3l-0.5,37 c-0.4,40.8-1.3,48.6-6.6,62.3c-7.1,18.3-23,32-43.5,37.7c-8.1,2.3-31.3,3.1-41.1,1.5c-10-1.6-20.2-5.1-27.3-9.4 c-10.7-6.6-20.2-18.6-23.6-30.1l-1.2-4l-53.7-0.3c-53.2-0.2-53.6-0.2-53.6,1.8c0,4.1,4.3,21.6,7.7,31.4 c8.1,23.4,20.7,43.3,37.4,59.1c25.9,24.6,55.7,38.3,97.4,45c13.5,2.2,53.8,3.1,67.5,1.6c43.4-4.9,75-19,101.5-45.6 c24.5-24.4,38.2-53.8,45.2-96.7c1.5-9.3,1.7-28,2-196.1l0.4-185.7H691h-54v30.7v30.8l-3.8-6.6c-6.4-10.9-10.2-16-17.6-23.7 c-15.8-16.4-34.4-26.7-58.6-32.4C545.6,152,512.7,151.2,499.7,153.3z M571.5,247.8c29.6,4.3,51.8,24.1,61.1,54.5 c2.6,8.5,2.8,10.1,2.8,29c0.1,16.5-0.2,21.2-1.8,27c-8.1,30.3-28,50.5-56.4,57.1c-8.7,2.1-26.4,2.1-36.2,0 c-16.5-3.4-32.9-14.5-43.1-28.9c-14.6-20.9-18.9-56.7-10.3-86.6c4-13.5,8.6-21.3,18.9-31.7c7.5-7.6,10.4-9.8,17.5-13.2 C538.8,247.9,554.8,245.4,571.5,247.8z"></path><path class="st0" d="M916.5,152.5c-35.2,4.6-67.1,21.4-89.1,47.1c-22.3,26-36.1,58.6-41.6,98.2c-2,14.6-1.7,57.5,0.5,72 c10.6,67.9,46.2,115.9,100,134.9c27.6,9.7,63.2,10.7,91.4,2.5c28.3-8.2,53.1-28.1,66.9-53.8l3.4-6.1V478v30.8h54h54V332.3V155.8h-54 h-54v30.7v30.8l-4.1-7.5c-16.4-30.3-46.2-50.4-83.4-56.5C952.2,151.9,924.7,151.4,916.5,152.5z M991,249.3 c8.8,2.2,19.6,7.5,27.2,13.6c20.8,16.6,31.2,43.5,29.4,75.5c-2.8,50.8-38.3,83.2-85.4,78.4c-32.8-3.4-55.4-23.1-64.4-56.1 c-2.1-7.5-2.3-10.5-2.3-28.9c0.1-23.9,1.4-30.3,9.1-45.7c10.2-20.5,29.8-34.6,53.1-38.3C965.4,246.6,982.9,247.4,991,249.3z"></path><path class="st0" d="M58.8,359l-0.3,203.3l-2.3,5c-5.6,12.2-11.4,14.6-37.4,15.3L0,583.1v46.3v46.4h28.9c31.8,0,44.9-1.2,61-5.5 c19.6-5.3,33.9-13.3,46.7-26c17-16.9,27.1-40.5,30.4-70.7c0.6-6.5,1-78.4,1-213.8v-204h-54.5H59L58.8,359z"></path><path class="st0" d="M224,332.3v176.5h54.5H333V332.3V155.8h-54.5H224V332.3z"></path><path class="st1" d="M1233.5,395.4c-19.8,3.1-37.3,15.7-45.4,32.7c-4.9,10.4-6.2,15.8-6.2,26.7c0,16.5,5.7,30.4,17.1,41.9 c7.2,7.3,18.5,13.9,28,16.2c8.6,2.1,23.2,1.7,31.5-0.9c24.8-7.7,42.5-31.5,42.5-57.2c0-25.4-17.8-49.5-41.9-57 C1252.8,395.8,1239.2,394.6,1233.5,395.4z"></path></svg>